<svg id="Layer_1" data-name="Layer 1" xmlns="http://www.w3.org/2000/svg" xmlns:xlink="http://www.w3.org/1999/xlink" viewBox="0 0 496.11 584.71"><defs><style>.cls-1{fill:#fff;}.cls-2{fill:url(#linear-gradient);}.cls-3{fill:url(#linear-gradient-2);}</style><linearGradient id="linear-gradient" x1="709.52" y1="576.09" x2="376.35" y2="576.09" gradientUnits="userSpaceOnUse"><stop offset="0" stop-color="#2484c6"/><stop offset="0.66" stop-color="#8661a9"/></linearGradient><linearGradient id="linear-gradient-2" x1="356.47" y1="455.66" x2="689.46" y2="455.66" xlink:href="#linear-gradient"/></defs><path class="cls-1" d="M762.16,516.47q0,142.65.17,285.31c0,5.86-1.19,7.05-7.05,7q-241-.3-482,0c-5.87,0-7.05-1.18-7.05-7q.3-285.31,0-570.61c0-5.87,1.18-7.06,7.05-7q241,.3,482,0c5.86,0,7.06,1.18,7.05,7Q762,373.82,762.16,516.47Z" transform="translate(-266.21 -224.12)"/><path class="cls-2" d="M709.3,599.45c0,29.17-.17,58.35.14,87.52.07,6.35-1.84,9.91-7.51,13.15Q626.41,743.19,551.33,787c-6.28,3.67-10.68,3.44-16.81-.14Q459,742.8,383.05,699.48c-5-2.84-6.74-6.12-6.65-11.71.29-18.69.42-37.38,0-56.06-.22-8.87,2.68-8.08,8.72-4.57,48.14,28,96.58,55.38,144.42,83.84,10.15,6,17.4,5.87,27.25-.16,27.35-16.75,55.33-32.5,83.25-48.32,4.69-2.65,6.2-5.64,6.17-10.84q-.31-52.12,0-104.24c0-5.33-1.8-8.18-6.35-10.78q-56.72-32.4-113.14-65.32c-4.36-2.53-8-2.65-12.83-1.18-72.09,20.71-101.76-85.24-30.79-105.76,30.74-8,61,10.38,67.88,41.91,1.34,6.1,4.75,8.63,9.38,11.29,46.59,26.71,93.07,53.61,139.75,80.16,6.71,3.82,9.59,8.06,9.43,16.16C708.94,542.4,709.29,570.93,709.3,599.45Z" transform="translate(-266.21 -224.12)"/><path class="cls-3" d="M356.65,431.8c0-28.85.2-57.71-.16-86.56-.08-6.38,1.83-9.88,7.44-13.09q76.77-43.84,153.16-88.35c4.12-2.39,7.08-2.61,11.4-.1Q605.76,288.64,683.36,333c4.72,2.71,6.07,5.87,6,11-.23,18.68-.4,37.38.08,56.06.22,8.31-2,8.63-8.47,4.84-49.53-28.8-99.26-57.27-148.71-86.2-6.78-4-11.74-4.11-18.61,0-28.95,17.3-58.23,34-87.58,50.65-4.57,2.59-6.4,5.25-6.36,10.6q.39,52.64,0,105.26c0,4.9,1.46,7.61,5.72,10q57.14,32.65,114,65.82c4.53,2.64,8.21,2.26,12.87.89,72.54-20.34,101.68,86.5,28.8,105.82-29.53,7.43-59.06-11.12-66-42.08-1.34-6.07-4.78-8.62-9.4-11.27-47.14-27.06-94.16-54.31-141.4-81.2-5.9-3.36-8-7.1-7.88-13.88C356.88,490.17,356.65,461,356.65,431.8Z" transform="translate(-266.21 -224.12)"/></svg>